<svg width="683" height="683" xmlns="http://www.w3.org/2000/svg" xmlns:xlink="http://www.w3.org/1999/xlink" xml:space="preserve" overflow="hidden"><defs><clipPath id="clip0"><rect x="298" y="18" width="683" height="683"/></clipPath></defs><g clip-path="url(#clip0)" transform="translate(-298 -18)"><path d="M326.159 681.799C321.223 679.665 318.155 674.996 318.155 669.393 318.155 664.991 318.956 663.39 322.557 660.189 326.826 656.454 327.226 656.32 342.3 656.32 357.508 656.32 357.775 656.32 361.643 660.189 368.18 666.725 366.312 677.264 357.908 681.533 354.573 683.267 330.161 683.4 326.159 681.799Z" fill="#FFFFFF" transform="matrix(1 0 0 -1 298 701)"/><path d="M254.124 671.795C240.517 667.926 237.983 666.459 235.315 661.389 233.581 657.921 233.447 656.32 234.648 652.185 237.983 641.246 247.588 640.446 271.733 649.117 285.206 653.919 283.472 672.595 269.331 674.329 266.797 674.729 259.994 673.529 254.124 671.795Z" fill="#FFFFFF" transform="matrix(1 0 0 -1 298 701)"/><path d="M411.401 673.662C403.397 670.461 400.462 659.388 405.931 652.985 409.266 649.117 427.809 643.114 436.613 642.98 443.55 642.98 449.553 648.717 449.553 655.52 449.553 663.657 444.484 667.659 429.009 671.661 414.469 675.396 415.269 675.263 411.401 673.662Z" fill="#FFFFFF" transform="matrix(1 0 0 -1 298 701)"/><path d="M172.884 638.312C167.015 634.977 161.145 631.375 159.811 630.174 156.343 626.839 155.409 620.036 157.944 615.234 162.479 606.563 169.549 606.163 183.69 613.9 198.764 622.17 200.765 624.171 200.765 631.642 200.765 636.844 200.098 638.445 197.029 641.113 191.16 646.049 185.29 645.382 172.884 638.312Z" fill="#FFFFFF" transform="matrix(1 0 0 -1 298 701)"/><path d="M487.038 640.846C483.569 637.911 482.902 636.444 482.902 631.508 482.902 623.905 485.17 621.503 500.778 613.099 511.983 606.963 512.784 606.696 517.719 608.164 523.989 610.031 526.924 614.033 526.924 620.57 526.924 627.106 523.456 630.841 510.249 638.312 497.843 645.382 492.907 645.915 487.038 640.846Z" fill="#FFFFFF" transform="matrix(1 0 0 -1 298 701)"/><path d="M114.856 594.824C110.854 593.223 102.183 585.619 95.7801 577.882 87.9096 568.678 88.9768 559.34 98.3147 555.471 101.916 553.87 103.917 553.737 107.252 554.938 112.722 556.672 130.197 574.414 131.397 579.349 133.799 588.687 123.527 598.292 114.856 594.824Z" fill="#FFFFFF" transform="matrix(1 0 0 -1 298 701)"/><path d="M556.405 591.355C554.137 589.221 552.27 586.42 552.136 584.952 551.603 577.749 552.67 575.614 561.341 566.677 574.947 552.536 580.817 550.535 588.554 557.472 592.022 560.54 592.956 562.274 592.956 566.677 592.956 570.945 591.889 573.08 587.754 577.749 572.279 595.09 564.142 598.559 556.405 591.355Z" fill="#FFFFFF" transform="matrix(1 0 0 -1 298 701)"/><path d="M227.311 581.884C195.295 562.675 163.413 531.726 141.269 498.243 124.994 473.831 109.787 438.214 102.984 408.866 93.9125 370.314 93.6457 325.492 102.317 286.807 118.058 215.572 159.945 154.609 221.041 114.056 234.915 104.718 236.649 104.051 256.125 100.049 289.741 93.2455 324.959 93.1121 360.843 99.6486 375.116 102.183 380.186 105.918 380.186 114.056 380.186 125.128 372.715 129.263 358.041 126.195 345.502 123.527 323.758 121.393 309.351 121.393 297.745 121.393 270.665 123.794 269.465 124.861 269.198 125.261 297.745 154.342 332.829 189.426L396.86 253.457 463.426 253.457C526.123 253.457 529.859 253.324 529.058 251.189 527.057 246.12 513.851 226.11 505.447 215.705 497.843 206.234 489.839 197.963 466.628 175.953 460.358 169.95 459.691 163.813 464.894 157.677 471.964 149.273 478.1 150.874 495.308 165.948 533.46 199.431 565.609 252.523 578.282 302.414 584.152 325.759 585.886 338.832 586.553 364.845 587.353 392.191 585.486 411.401 580.15 434.746 576.681 450.086 574.28 452.488 560.674 455.556 520.521 464.493 481.835 465.16 441.949 457.423 425.007 454.222 397.794 445.551 383.387 438.881L372.582 433.812 368.18 445.417C347.636 499.577 306.55 549.735 256.659 580.95 250.122 585.086 243.452 588.287 241.451 588.287 239.45 588.287 233.18 585.486 227.311 581.884ZM254.924 550.135C294.677 521.455 326.96 479.167 344.301 433.011L348.837 421.139 344.835 418.338C306.016 390.457 282.805 366.846 262.528 334.563L254.791 322.557 254.524 396.193 254.124 469.829 249.722 473.698C247.321 475.832 243.852 477.566 241.985 477.566 237.583 477.566 231.18 474.231 229.445 471.03 228.645 469.296 228.111 447.952 228.111 411.668 228.111 380.452 227.711 354.84 227.044 354.84 226.511 354.84 206.901 374.049 183.556 397.394L141.002 439.948 143.27 445.818C150.34 463.693 166.081 488.905 181.822 507.848 200.631 530.392 236.916 560.407 242.785 558.272 243.852 557.872 249.322 554.137 254.924 550.135ZM538.93 432.878C545.866 431.677 552.27 429.943 553.203 429.143 554.004 428.209 555.871 421.806 557.072 414.869 560.14 398.728 560.54 350.038 557.872 334.83 555.471 321.49 550.402 301.614 546.533 290.142L543.332 280.804 483.436 280.404 423.673 280.137 459.291 315.888C494.641 351.505 494.908 351.772 494.908 357.374 494.908 367.646 484.903 373.916 475.832 369.38 474.231 368.58 446.084 341.1 413.268 308.284L353.506 248.788 353.506 320.423 353.506 391.925 362.577 397.661C392.458 416.603 431.677 430.343 467.562 434.746 483.169 436.613 523.856 435.546 538.93 432.878ZM227.711 283.472C227.311 256.925 226.777 249.322 224.51 238.783 218.907 213.838 217.439 177.82 220.908 152.875L221.842 146.205 217.573 149.273C210.236 154.475 189.826 174.619 180.888 185.29 150.073 222.242 130.063 268.931 123.927 317.888 120.992 342.167 123.394 378.985 129.53 405.264L131.264 412.335 179.688 363.911 228.245 315.487 227.711 283.472ZM288.141 183.556C266.93 162.213 249.188 145.138 248.921 145.538 248.521 145.938 247.454 155.142 246.52 165.948 240.918 235.982 266.397 307.75 314.687 357.908L326.159 369.78 326.559 296.011 326.826 222.108 288.141 183.556Z" fill="#FFFFFF" transform="matrix(1 0 0 -1 298 701)"/><path d="M58.6953 528.525C55.227 526.79 52.2922 523.189 47.0896 514.251 43.2211 507.714 40.0195 500.911 40.0195 499.177 40.0195 495.042 43.4879 488.638 46.5561 486.904 49.891 485.17 56.8277 485.17 60.0293 486.904 63.7645 488.905 77.3711 512.784 77.3711 517.186 77.3711 522.255 74.0361 526.79 68.5668 529.058 63.0975 531.326 64.298 531.326 58.6953 528.525Z" fill="#FFFFFF" transform="matrix(1 0 0 -1 298 701)"/><path d="M610.831 525.857C604.162 519.854 604.695 514.651 613.499 499.844 619.903 489.039 624.972 484.236 629.641 484.236 633.242 484.236 640.046 488.638 641.513 491.707 644.181 497.576 643.114 501.978 636.311 513.717 628.44 527.324 627.373 528.258 620.57 529.192 616.167 529.725 614.7 529.325 610.831 525.857Z" fill="#FFFFFF" transform="matrix(1 0 0 -1 298 701)"/><path d="M23.3447 451.687C17.6086 449.153 16.6748 447.552 12.8063 434.212 8.4041 419.005 8.4041 415.936 13.2064 410.6 16.408 406.999 18.0088 406.198 22.5443 406.198 30.5482 406.198 34.0166 410.334 38.0186 424.874 42.2873 440.215 42.1539 443.283 37.7518 448.085 33.2162 453.021 28.6807 454.088 23.3447 451.687Z" fill="#FFFFFF" transform="matrix(1 0 0 -1 298 701)"/><path d="M646.315 449.019C641.38 444.083 640.979 439.815 644.181 427.809 648.183 412.868 649.384 409.933 653.119 407.532 661.389 402.063 673.662 408.199 673.662 417.804 673.662 422.473 671.128 432.344 667.526 442.616 664.057 452.087 652.719 455.422 646.315 449.019Z" fill="#FFFFFF" transform="matrix(1 0 0 -1 298 701)"/><path d="M8.6709 368.313C2.13438 365.512 0.666992 362.043 0.266797 347.236-0.266797 331.362 1.06719 326.426 6.80332 323.491 11.4723 320.957 15.2074 320.957 19.8764 323.358 25.3457 326.293 26.6797 330.695 26.6797 346.569 26.6797 358.041 26.1461 361.376 24.2785 363.644 20.0098 368.98 14.407 370.581 8.6709 368.313Z" fill="#FFFFFF" transform="matrix(1 0 0 -1 298 701)"/><path d="M660.189 364.311 656.32 360.443 656.32 337.631C656.32 315.621 656.454 314.82 659.522 311.219 662.19 308.15 663.791 307.483 668.726 307.483 675.93 307.483 679.665 310.418 681.666 317.355 683.534 324.025 683.4 356.974 681.533 360.576 677.264 368.98 666.725 370.848 660.189 364.311Z" fill="#FFFFFF" transform="matrix(1 0 0 -1 298 701)"/><path d="M11.7391 280.003C7.87051 276.135 7.73711 275.601 8.4041 268.398 8.9377 264.129 10.4051 256.792 12.0059 251.856 15.074 241.718 19.3428 237.449 26.1461 237.449 31.482 237.449 38.152 242.652 39.0857 247.588 39.7527 251.323 34.2834 274.801 31.7488 278.803 27.6135 285.339 17.6086 285.873 11.7391 280.003Z" fill="#FFFFFF" transform="matrix(1 0 0 -1 298 701)"/><path d="M652.719 268.664C648.183 266.397 646.582 263.195 641.646 246.387 638.712 236.382 638.712 235.715 640.713 231.313 644.715 223.042 654.586 221.041 661.389 227.178 665.391 230.913 672.862 254.658 671.661 259.994 669.927 268.264 660.456 272.666 652.719 268.664Z" fill="#FFFFFF" transform="matrix(1 0 0 -1 298 701)"/><path d="M43.3545 202.499C34.817 197.563 34.5502 191.827 42.1539 177.42 50.0244 162.479 53.0926 159.411 60.2961 159.411 64.6982 159.411 66.299 160.212 69.5006 163.813 71.9018 166.481 73.3691 169.549 73.3691 172.084 73.3691 176.886 61.2299 199.164 56.9611 202.099 53.6262 204.5 47.0896 204.633 43.3545 202.499Z" fill="#FFFFFF" transform="matrix(1 0 0 -1 298 701)"/><path d="M620.97 190.226C616.034 188.092 601.627 165.281 601.627 159.545 601.627 154.609 609.364 146.738 614.166 146.738 620.836 146.738 624.438 149.806 631.775 161.679 641.646 177.687 641.513 186.091 631.642 190.226 626.172 192.494 626.039 192.494 620.97 190.226Z" fill="#FFFFFF" transform="matrix(1 0 0 -1 298 701)"/><path d="M417.671 144.871C406.065 138.468 411.001 120.059 424.207 120.059 431.01 120.059 437.547 126.595 437.547 133.265 437.547 143.27 426.475 149.806 417.671 144.871Z" fill="#FFFFFF" transform="matrix(1 0 0 -1 298 701)"/><path d="M91.7781 132.731C87.1092 130.063 85.375 126.862 85.375 120.592 85.375 116.323 86.5756 114.456 96.1803 104.718 102.05 98.5815 108.453 93.2455 110.187 92.8453 118.591 90.7109 128.196 100.449 126.195 108.853 125.661 110.854 120.592 117.257 114.989 122.993 103.651 134.599 98.7149 136.6 91.7781 132.731Z" fill="#FFFFFF" transform="matrix(1 0 0 -1 298 701)"/><path d="M567.61 121.526C565.476 120.192 559.74 114.989 554.938 110.187 547.2 102.183 546.267 100.849 546.267 95.9135 546.267 91.3779 547.067 89.7772 550.802 86.4422 557.739 80.1725 563.475 81.5064 574.947 92.3117 589.354 105.785 591.489 113.389 582.684 120.726 578.015 124.728 573.08 124.994 567.61 121.526Z" fill="#FFFFFF" transform="matrix(1 0 0 -1 298 701)"/><path d="M155.142 76.7041C153.408 75.5035 151.407 72.302 150.607 69.5006 148.206 61.6301 151.14 57.4947 165.014 49.224 179.554 40.4197 185.024 39.7527 190.893 46.4227 198.497 54.9602 195.562 61.7635 179.821 71.5016 167.148 79.2387 160.745 80.5727 155.142 76.7041Z" fill="#FFFFFF" transform="matrix(1 0 0 -1 298 701)"/><path d="M492.774 65.3652C478.5 57.4947 476.232 55.3604 475.966 48.8238 475.699 42.4207 479.701 37.0848 485.837 35.484 489.972 34.4168 491.84 34.9504 500.911 39.4859 515.051 46.5561 520.254 51.4918 520.254 57.8949 520.254 64.298 518.52 67.4996 513.584 70.0342 507.848 72.9689 506.114 72.5688 492.774 65.3652Z" fill="#FFFFFF" transform="matrix(1 0 0 -1 298 701)"/><path d="M233.581 40.8199C223.442 35.2172 225.177 21.077 236.382 16.8082 256.125 9.47129 263.862 8.9377 269.598 14.5404 274.801 19.8764 274.934 26.4129 269.865 31.8822 267.064 34.817 263.062 36.6846 253.857 39.2191 239.984 43.0877 238.116 43.3545 233.581 40.8199Z" fill="#FFFFFF" transform="matrix(1 0 0 -1 298 701)"/><path d="M414.869 35.484C399.662 31.2152 399.395 31.0818 396.86 25.8793 394.192 20.2766 395.126 14.8072 399.262 10.9387 404.064 6.53652 407.532 6.26973 421.005 9.33789 437.013 13.073 442.216 16.8082 442.216 25.2123 442.216 32.0156 437.547 37.2182 430.744 38.0186 428.342 38.2854 421.139 37.2182 414.869 35.484Z" fill="#FFFFFF" transform="matrix(1 0 0 -1 298 701)"/><path d="M314.687 22.8111C307.884 16.0078 310.285 4.53555 319.089 1.46738 324.825-0.533594 346.703-0.400195 350.838 1.73418 352.705 2.66797 355.24 5.60273 356.574 8.2707 358.708 12.6729 358.708 13.6066 357.108 17.742 353.773 25.6125 350.838 26.6797 333.763 26.6797 318.822 26.6797 318.555 26.6797 314.687 22.8111Z" fill="#FFFFFF" transform="matrix(1 0 0 -1 298 701)"/></g></svg>